# xmcd
#
# Track frame offsets:
#	150
#	10697
#	27932
#	42367
#	50540
#	61942
#	69747
#	84370
#	92245
#	105075
#	112825
#	121982
#	131912
#	148957
#
# Disc length: 2243 seconds
#
# Revision: 1
# Processed by: cddbd v1.4b42PL1 Copyright (c) Steve Scherf et al.
# Submitted via: audiograbber 1.80
#
DISCID=b908c10e
DTITLE=Sean McGuire - Celtic Fiddle
DYEAR=1900
DGENRE=
TTITLE0=Mahoney's Fancy
TTITLE1=Sligo Maid - Tommy Gunn
TTITLE2=Excelsior and Mason's Apron
TTITLE3=Two Reevy's
TTITLE4=The Bank - The Gauger
TTITLE5=The Banks
TTITLE6=The Old Grey Goose
TTITLE7=Farewell To Kilroe
TTITLE8=Chief O'Neill's Fancy - The Chuckoo
TTITLE9=The Pullet Wants A Cock
TTITLE10=Kesh - Morrison
TTITLE11=Carolan's Concerto
TTITLE12=Harvest Home and High Level
TTITLE13=Centenary
EXTD=
EXTT0=
EXTT1=
EXTT2=
EXTT3=
EXTT4=
EXTT5=
EXTT6=
EXTT7=
EXTT8=
EXTT9=
EXTT10=
EXTT11=
EXTT12=
EXTT13=
PLAYORDER=
